<?xml version="1.0" encoding="utf-8"?>
<!-- Generator: Adobe Illustrator 25.4.1, SVG Export Plug-In . SVG Version: 6.00 Build 0)  -->
<svg version="1.1" xmlns="http://www.w3.org/2000/svg" xmlns:xlink="http://www.w3.org/1999/xlink" x="0px" y="0px"
	 viewBox="0 0 47.8 64" style="enable-background:new 0 0 47.8 64;" xml:space="preserve">
<style type="text/css">
	.st0{enable-background:new    ;}
	.st1{opacity:0.83;fill:#26B489;enable-background:new    ;}
	.st2{fill:#26B489;}
	.st3{clip-path:url(#SVGID_00000142877817894575678280000000531822592172509883_);fill:#FFFFFF;}
	.st4{fill:none;stroke:#FFFFFF;stroke-miterlimit:10;}
</style>
<g id="Layer_1">
	<g id="Layer_1_00000174594920309691631610000000182233008489853580_">
		<g class="st0">
			<path class="st1" d="M23.9,62.5c-0.4,0-0.8-0.2-1-0.5c-3.4-4.9-6.2-8.9-8.5-12.1c-10.7-15.3-13-18.5-13-25.9
				c0-12.4,10.1-22.4,22.4-22.4s22.4,10.1,22.4,22.4c0,7.4-2.2,10.6-12.9,25.8l-1.1,1.6c-2.2,3.1-4.6,6.5-7.4,10.6
				C24.7,62.3,24.3,62.5,23.9,62.5z"/>
			<g>
				<path class="st2" d="M23.9,3c11.5,0,20.9,9.4,20.9,20.9c0,7-1.9,9.7-12.6,25L32.2,49L31,50.7c-2.1,3-4.4,6.3-7,10.1
					c-3.3-4.8-6-8.7-8.2-11.8l-0.1-0.1C4.9,33.6,3,30.9,3,23.9C3,12.4,12.4,3,23.9,3 M23.9,0C10.7,0,0,10.7,0,23.9
					c0,7.9,2.3,11.2,13.2,26.8c2.4,3.5,5.2,7.4,8.5,12.1c0.5,0.7,1.3,1.2,2.2,1.2s1.7-0.4,2.2-1.2c3.3-4.8,6-8.7,8.5-12.1
					c10.9-15.6,13.2-18.9,13.2-26.8C47.8,10.7,37.1,0,23.9,0L23.9,0z"/>
			</g>
		</g>
	</g>
	<g id="kip">
	</g>
</g>
<g id="Layer_4">
</g>
<g id="Layer_3">
	<g>
		<defs>
			<circle id="SVGID_1_" cx="23.9" cy="23.9" r="17.9"/>
		</defs>
		<clipPath id="SVGID_00000102507875691776680430000016384226180705623981_">
			<use xlink:href="#SVGID_1_"  style="overflow:visible;"/>
		</clipPath>
		<path style="clip-path:url(#SVGID_00000102507875691776680430000016384226180705623981_);fill:#FFFFFF;" d="M25.4,18.3
			c0.8-0.2,1.7-0.6,2.3-1c1.6-1.2,2.5-3.6,0.5-3.3c-0.6,0.1-1,0.1-1.4,0.1c-0.9,0-1.2,0-2.4,0.9c-0.4,0.3-0.8,0.7-1.2,1.1
			c-1.8-1.3-4.1-1.9-8.2-1.7c-0.3,0-0.6,0.3-0.6,0.6s0.3,0.6,0.6,0.6h2.2c0.4,0.2,0.7,0.4,0.9,0.7L13.6,22h-0.3
			c-1.4,0-2.5,1.1-2.5,2.5c0,0.2,0,0.5,0.1,0.7l0.4,1.3c0.3,1.1,1.3,1.8,2.4,1.8H18c0.5,0,1.1,0.2,1.5,0.5l2.8,2
			c0.1,0.1,0.2,0.1,0.3,0.2c2,5.1,4.1,9.1,6.4,11.1l0.4,5.2c-0.7,0.1-1.2,0.8-1,1.5c0.1,0.6,0.6,1.1,1.2,1.1h3.8V38.4h12.4
			c1.9,1.8,4,3.2,7.2,3.8l0.4,5.1c-0.7,0.1-1.2,0.8-1,1.5c0.1,0.6,0.6,1.1,1.2,1.1h3.8V27c0-1.7-0.6-3.4-1.6-4.7
			c0.8,0.2,1.3,0.5,1.7,0.9c0.7,0.7,1.1,1.8,1.1,3.8l0.5,6.9c-0.3,0.5-0.5,1.2-0.5,2c0,1.4,0.6,2.5,1.3,2.5s1.3-1.1,1.3-2.5
			c0-0.8-0.2-1.5-0.5-2l0.5-6.9c0-2.3-0.5-4.3-1.9-5.7c-1.4-1.4-3.5-1.9-6-1.9c-0.1,0-2.7,0-2.8,0v0c-0.1,0-0.2,0-0.4,0H31.5
			c-2.4,0-4.3-0.4-5.8-0.8C25.6,18.6,25.4,18.3,25.4,18.3z"/>
	</g>
</g>
<g id="Layer_2">
	<g id="circle_outline">
		<circle class="st4" cx="23.9" cy="23.9" r="17.9"/>
	</g>
</g>
</svg>
